<svg xmlns="http://www.w3.org/2000/svg" width="1050" height="1160" viewBox="0 0 1050 1160"><rect width="1050" height="1160" fill="#f7f3e9"/><style>text{font-family:Microsoft YaHei,sans-serif;fill:#403e36;font-size:17px}.small{font-size:13px}</style><text x="470" y="42" text-anchor="middle" class="normal">嘉节老院子 · 2026-09-23 结构核对</text><text x="470" y="65.79999999999995" text-anchor="middle" class="small">北 ↑  · 上北下南 / 左西右东  · 比例为工作模型，非测绘</text><rect x="201.39999999999998" y="99.79999999999995" width="537.2" height="125.80000000000004" fill="#c9c0ac" stroke="#676859" stroke-width="2"/><text x="470.0" y="162.70000000000005" text-anchor="middle" class="normal">北房</text><rect x="201.39999999999998" y="225.60000000000002" width="537.2" height="101.99999999999999" fill="#ddd4bd" stroke="#676859" stroke-width="2"/><text x="470.0" y="276.6" text-anchor="middle" class="normal">高平台</text><rect x="296.6" y="327.6" width="346.79999999999995" height="550.8" fill="#eeeadf" stroke="#676859" stroke-width="2"/><rect x="201.39999999999998" y="327.6" width="95.19999999999999" height="528.02" fill="#d0c5b0" stroke="#676859" stroke-width="2"/><rect x="201.39999999999998" y="841.0" width="95.19999999999999" height="37.400000000000006" fill="#c6b491" stroke="#676859" stroke-width="2"/><text x="249.0" y="859.7" text-anchor="middle" class="normal">厕所</text><rect x="643.4" y="327.6" width="95.19999999999999" height="355.29999999999995" fill="#d0c5b0" stroke="#676859" stroke-width="2"/><rect x="643.4" y="682.9" width="95.19999999999999" height="98.6" fill="#e7d9c1" stroke="#676859" stroke-width="2"/><text x="691.0" y="732.2" text-anchor="middle" class="normal">门厅</text><rect x="643.4" y="781.5" width="95.19999999999999" height="96.9" fill="#d0c5b0" stroke="#676859" stroke-width="2"/><text x="691.0" y="829.95" text-anchor="middle" class="normal">东南房屋</text><rect x="201.39999999999998" y="878.4" width="295.79999999999995" height="51.0" fill="#d7d8ca" stroke="#676859" stroke-width="2"/><text x="349.29999999999995" y="903.9" text-anchor="middle" class="normal">杂物道（南端西段）</text><rect x="388.4" y="327.6" width="163.2" height="122.4" fill="#c5bba4" stroke="#676859" stroke-width="2"/><path d="M388.4,338.72727272727275 L551.6,338.72727272727275" stroke="#8d8777" stroke-width="3" fill="none"/><path d="M388.4,349.8545454545455 L551.6,349.8545454545455" stroke="#8d8777" stroke-width="3" fill="none"/><path d="M388.4,360.9818181818182 L551.6,360.9818181818182" stroke="#8d8777" stroke-width="3" fill="none"/><path d="M388.4,372.1090909090909 L551.6,372.1090909090909" stroke="#8d8777" stroke-width="3" fill="none"/><path d="M388.4,383.23636363636365 L551.6,383.23636363636365" stroke="#8d8777" stroke-width="3" fill="none"/><path d="M388.4,394.3636363636364 L551.6,394.3636363636364" stroke="#8d8777" stroke-width="3" fill="none"/><path d="M388.4,405.4909090909091 L551.6,405.4909090909091" stroke="#8d8777" stroke-width="3" fill="none"/><path d="M388.4,416.6181818181818 L551.6,416.6181818181818" stroke="#8d8777" stroke-width="3" fill="none"/><path d="M388.4,427.74545454545455 L551.6,427.74545454545455" stroke="#8d8777" stroke-width="3" fill="none"/><path d="M388.4,438.8727272727273 L551.6,438.8727272727273" stroke="#8d8777" stroke-width="3" fill="none"/><text x="470" y="399.0" text-anchor="middle" class="normal">中央楼梯 · 11级</text><text x="470" y="586" text-anchor="middle" class="normal">院子</text><path d="M388.4,327.6 L296.6,327.6" stroke="#40786d" stroke-width="3" fill="none"/><text x="345.9" y="314.0" text-anchor="middle" class="small">短栏杆接侧墙</text><text x="365.28" y="375.2" text-anchor="middle" class="small">地下室门</text><text x="317.67999999999995" y="348" text-anchor="middle" class="small">窗</text><path d="M551.6,327.6 L643.4,327.6" stroke="#40786d" stroke-width="3" fill="none"/><text x="594.1" y="314.0" text-anchor="middle" class="small">短栏杆接侧墙</text><text x="574.72" y="375.2" text-anchor="middle" class="small">地下室门</text><text x="622.32" y="348" text-anchor="middle" class="small">窗</text><path d="M724.32,277.28 L724.32,231.04" stroke="#874d3c" stroke-width="3" fill="none"/><text x="725.0" y="291.9" text-anchor="middle" class="small">斜梯 → 檐</text><path d="M296.6,422.8 L296.6,511.2" stroke="#486f72" stroke-width="3" fill="none"/><text x="249.0" y="467.0" text-anchor="middle" class="small">W-W1</text><path d="M296.6,536.7 L296.6,642.1" stroke="#974f3b" stroke-width="3" fill="none"/><text x="249.0" y="589.4" text-anchor="middle" class="small">W-D1</text><path d="M296.6,657.4 L296.6,752.6" stroke="#974f3b" stroke-width="3" fill="none"/><text x="249.0" y="705.0" text-anchor="middle" class="small">W-D2</text><path d="M296.6,766.2 L296.6,820.6" stroke="#486f72" stroke-width="3" fill="none"/><text x="249.0" y="793.4" text-anchor="middle" class="small">W-W2</text><path d="M296.6,841.0 L296.6,870.24" stroke="#974f3b" stroke-width="3" fill="none"/><text x="249.0" y="855.62" text-anchor="middle" class="small">WC-D</text><path d="M643.4,348.0 L643.4,429.6" stroke="#486f72" stroke-width="3" fill="none"/><text x="691.0" y="388.8" text-anchor="middle" class="small">E-W1</text><path d="M643.4,455.1 L643.4,550.3" stroke="#974f3b" stroke-width="3" fill="none"/><text x="691.0" y="502.7" text-anchor="middle" class="small">E-D1</text><path d="M643.4,574.1 L643.4,659.1" stroke="#486f72" stroke-width="3" fill="none"/><text x="691.0" y="616.6" text-anchor="middle" class="small">E-W2</text><path d="M643.4,797.99 L643.4,860.8900000000001" stroke="#974f3b" stroke-width="3" fill="none"/><text x="691.0" y="829.44" text-anchor="middle" class="small">SE-D</text><path d="M221.45999999999998,225.60000000000002 L293.54,225.60000000000002" stroke="#486f72" stroke-width="3" fill="none"/><text x="257.5" y="212.0" text-anchor="middle" class="small">N-W0</text><path d="M305.1,225.60000000000002 L373.1,225.60000000000002" stroke="#974f3b" stroke-width="3" fill="none"/><text x="339.1" y="212.0" text-anchor="middle" class="small">N-D1</text><path d="M389.76,225.60000000000002 L461.84,225.60000000000002" stroke="#486f72" stroke-width="3" fill="none"/><text x="425.8" y="212.0" text-anchor="middle" class="small">N-W1</text><path d="M478.16,225.60000000000002 L550.24,225.60000000000002" stroke="#486f72" stroke-width="3" fill="none"/><text x="514.2" y="212.0" text-anchor="middle" class="small">N-W2</text><path d="M566.9,225.60000000000002 L634.9,225.60000000000002" stroke="#974f3b" stroke-width="3" fill="none"/><text x="600.9" y="212.0" text-anchor="middle" class="small">N-D2</text><path d="M646.46,225.60000000000002 L718.54,225.60000000000002" stroke="#486f72" stroke-width="3" fill="none"/><text x="682.5" y="212.0" text-anchor="middle" class="small">N-W3</text><rect x="738.6" y="691.4" width="56.099999999999994" height="81.6" fill="#dac8a9" stroke="#676859" stroke-width="2"/><text x="820.2" y="715.2" text-anchor="middle" class="small">小斜坡</text><text x="820.2" y="739.0" text-anchor="middle" class="small">大门</text><path d="M816.8,732.2 L296.6,732.2" stroke="#b14c3c" stroke-width="3" fill="none" stroke-dasharray="7 5"/><text x="470" y="756" text-anchor="middle" class="small">门外视线：不强制与门2中心重合</text><text x="470" y="994" text-anchor="middle" class="small">蓝色：窗洞 · 红褐色：门洞 · 绿色：平台短栏杆</text><text x="470" y="1028" text-anchor="middle" class="small">门窗序列按家人确认；洞口尺寸与中心偏移尚待校准，详见《08_最新确认与修订》</text><text x="470" y="1062" text-anchor="middle" class="small">门洞的亮子、侧玻璃不另算独立窗；手绘原图未修改。</text><path d="M334.0,878.4 L364.6,878.4" stroke="#874d3c" stroke-width="3" fill="none"/><text x="349.3" y="863.1" text-anchor="middle" class="small">杂物道小门</text><rect x="341.48" y="454.08" width="40.8" height="29.24" fill="#718679" stroke="#676859" stroke-width="2"/><text x="364.6" y="511.2" text-anchor="middle" class="small">水池沿 +7cm</text></svg>